<svg width="208" height="27" viewBox="0 0 208 27" fill="none" xmlns="http://www.w3.org/2000/svg">
<path d="M12.86 26.54C9.02 26.54 6.02 25.4 3.86 23.12C1.7 20.84 0.62 17.6 0.62 13.4C0.62 10.64 1.088 8.276 2.024 6.308C2.984 4.316 4.316 2.816 6.02 1.808C7.748 0.775999 9.74 0.259999 11.996 0.259999C13.364 0.259999 14.744 0.655999 16.136 1.448C16.664 1.736 17.192 2.12 17.72 2.6C18.128 1.976 18.548 1.484 18.98 1.124C19.412 0.811998 19.652 0.643998 19.7 0.619998H20.6V7.46H19.16C18.848 6.308 18.38 5.264 17.756 4.328C17.18 3.416 16.46 2.66 15.596 2.06C14.756 1.46 13.784 1.16 12.68 1.16C11.024 1.16 9.644 2.12 8.54 4.04C7.46 5.96 6.92 9.08 6.92 13.4C6.92 17.792 7.508 20.936 8.684 22.832C9.884 24.704 11.516 25.64 13.58 25.64C14.708 25.64 15.776 25.328 16.784 24.704C17.816 24.056 18.644 23.204 19.268 22.148C19.916 21.092 20.24 19.976 20.24 18.8H21.14C21.14 20.168 20.768 21.452 20.024 22.652C19.304 23.828 18.308 24.776 17.036 25.496C15.788 26.192 14.396 26.54 12.86 26.54ZM20.9909 25.46L23.8709 24.38L33.7709 0.439999H34.8509L45.1109 24.92L46.9109 25.46V26H42.5909C41.3429 26 40.3229 25.724 39.5309 25.172C38.7389 24.596 38.1509 23.852 37.7669 22.94L35.9309 18.62H27.3269L24.9509 24.38L27.6509 25.46V26H20.9909V25.46ZM27.6869 17.72H35.5709L31.6109 8.252L27.6869 17.72ZM47.9797 25.46L50.1397 24.92V1.88L47.9797 1.34V0.799998H57.5197C61.5997 0.799998 64.5397 1.424 66.3397 2.672C68.1397 3.896 69.0397 5.612 69.0397 7.82C69.0397 9.308 68.6437 10.52 67.8517 11.456C67.0597 12.368 66.0397 13.052 64.7917 13.508C63.4717 14.012 62.0677 14.276 60.5797 14.3V14.48C61.4677 14.528 62.2477 14.66 62.9197 14.876C64.5997 15.404 65.7397 16.352 66.3397 17.72L69.5797 24.92L71.3797 25.46V26H66.3397C64.3717 26 62.9317 24.98 62.0197 22.94L58.4197 14.84H56.0797V24.92L58.5997 25.46V26H47.9797V25.46ZM57.5197 13.94C59.1997 13.94 60.5197 13.412 61.4797 12.356C62.4397 11.3 62.9197 9.788 62.9197 7.82C62.9197 5.852 62.4397 4.34 61.4797 3.284C60.5197 2.228 59.1997 1.7 57.5197 1.7H56.0797V13.94H57.5197ZM73.1867 25.46L75.3467 24.92V1.88L73.1867 1.34V0.799998H92.4467V7.28H91.3667C90.9107 6.92 90.5147 6.464 90.1787 5.912C89.4107 4.616 89.0267 3.212 89.0267 1.7H81.2867V13.04H85.4267C85.5947 12.128 85.9067 11.276 86.3627 10.484C86.5547 10.124 86.7827 9.776 87.0467 9.44H88.1267V17.54H87.0467C86.7827 17.204 86.5547 16.856 86.3627 16.496C85.9067 15.704 85.5947 14.852 85.4267 13.94H81.2867V25.1H89.7467C89.7467 23.588 90.1307 22.184 90.8987 20.888C91.2347 20.336 91.6307 19.88 92.0867 19.52H93.1667V26H73.1867V25.46ZM108.098 26.54C104.258 26.54 101.258 25.4 99.0983 23.12C96.9383 20.84 95.8583 17.6 95.8583 13.4C95.8583 10.64 96.3263 8.276 97.2623 6.308C98.2223 4.316 99.5543 2.816 101.258 1.808C102.986 0.775999 104.978 0.259999 107.234 0.259999C108.602 0.259999 109.982 0.655999 111.374 1.448C111.902 1.736 112.43 2.12 112.958 2.6C113.366 1.976 113.786 1.484 114.218 1.124C114.65 0.811998 114.89 0.643998 114.938 0.619998H115.838V7.46H114.398C114.086 6.308 113.618 5.264 112.994 4.328C112.418 3.416 111.698 2.66 110.834 2.06C109.994 1.46 109.022 1.16 107.918 1.16C106.262 1.16 104.882 2.12 103.778 4.04C102.698 5.96 102.158 9.08 102.158 13.4C102.158 17.792 102.746 20.936 103.922 22.832C105.122 24.704 106.754 25.64 108.818 25.64C109.946 25.64 111.014 25.328 112.022 24.704C113.054 24.056 113.882 23.204 114.506 22.148C115.154 21.092 115.478 19.976 115.478 18.8H116.378C116.378 20.168 116.006 21.452 115.262 22.652C114.542 23.828 113.546 24.776 112.274 25.496C111.026 26.192 109.634 26.54 108.098 26.54ZM124.321 25.46L126.481 24.92V16.64L119.101 1.88L117.301 1.34V0.799998H121.801C123.049 0.799998 124.045 1.064 124.789 1.592C125.557 2.12 126.181 2.876 126.661 3.86L131.989 14.48L137.461 2.42L134.761 1.34V0.799998H141.601V1.34L138.721 2.42L132.421 16.28V24.92L134.581 25.46V26H124.321V25.46ZM154.012 26.54C150.172 26.54 147.172 25.4 145.012 23.12C142.852 20.84 141.772 17.6 141.772 13.4C141.772 10.64 142.24 8.276 143.176 6.308C144.136 4.316 145.468 2.816 147.172 1.808C148.9 0.775999 150.892 0.259999 153.148 0.259999C154.516 0.259999 155.896 0.655999 157.288 1.448C157.816 1.736 158.344 2.12 158.872 2.6C159.28 1.976 159.7 1.484 160.132 1.124C160.564 0.811998 160.804 0.643998 160.852 0.619998H161.752V7.46H160.312C160 6.308 159.532 5.264 158.908 4.328C158.332 3.416 157.612 2.66 156.748 2.06C155.908 1.46 154.936 1.16 153.832 1.16C152.176 1.16 150.796 2.12 149.692 4.04C148.612 5.96 148.072 9.08 148.072 13.4C148.072 17.792 148.66 20.936 149.836 22.832C151.036 24.704 152.668 25.64 154.732 25.64C155.86 25.64 156.928 25.328 157.936 24.704C158.968 24.056 159.796 23.204 160.42 22.148C161.068 21.092 161.392 19.976 161.392 18.8H162.292C162.292 20.168 161.92 21.452 161.176 22.652C160.456 23.828 159.46 24.776 158.188 25.496C156.94 26.192 155.548 26.54 154.012 26.54ZM165.366 25.46L167.526 24.92V1.88L165.366 1.34V0.799998H175.626V1.34L173.466 1.88V25.1H181.206C181.206 23.588 181.59 22.184 182.358 20.888C182.694 20.336 183.09 19.88 183.546 19.52H184.626V26H165.366V25.46ZM187.339 25.46L189.499 24.92V1.88L187.339 1.34V0.799998H206.599V7.28H205.519C205.063 6.92 204.667 6.464 204.331 5.912C203.563 4.616 203.179 3.212 203.179 1.7H195.439V13.04H199.579C199.747 12.128 200.059 11.276 200.515 10.484C200.707 10.124 200.935 9.776 201.199 9.44H202.279V17.54H201.199C200.935 17.204 200.707 16.856 200.515 16.496C200.059 15.704 199.747 14.852 199.579 13.94H195.439V25.1H203.899C203.899 23.588 204.283 22.184 205.051 20.888C205.387 20.336 205.783 19.88 206.239 19.52H207.319V26H187.339V25.46Z" fill="#BFD2F8"/>
</svg>
